<?xml version="1.0" encoding="UTF-8" standalone="no"?>
<svg width="210px" height="210px" viewBox="0 0 210 210" version="1.1" xmlns="http://www.w3.org/2000/svg" xmlns:xlink="http://www.w3.org/1999/xlink" xmlns:sketch="http://www.bohemiancoding.com/sketch/ns">
    <!-- Generator: Sketch 3.0.1 (7597) - http://www.bohemiancoding.com/sketch -->
    <title>Logo</title>
    <description>Created with Sketch.</description>
    <defs></defs>
    <g id="Welcome" stroke="none" stroke-width="1" fill="none" fill-rule="evenodd" sketch:type="MSPage">
        <g id="Desktop" sketch:type="MSArtboardGroup" transform="translate(-408.000000, -84.000000)" fill="#565656">
            <g id="Heading" sketch:type="MSLayerGroup" transform="translate(169.000000, 84.000000)">
                <path d="M246.319659,94.1491568 L301.745321,135 C328.32153,97.2750207 382.473798,25.8326998 428,0 L239,0 L239,90.4960948 C241.556221,91.3405447 244.041698,92.4742535 246.319659,94.1491568 Z M329.4123,186.949778 C325.521933,192.916431 319.317996,197.012383 312.278732,198.267293 C310.758252,198.537868 309.228385,198.673156 307.707904,198.673156 C302.179736,198.673156 296.750117,196.909751 292.249682,193.578875 L239,154.149513 L239,210 L449,210 L449,48 C413.592505,70.1638542 358.277973,142.706042 329.4123,186.949778 Z" id="Logo" sketch:type="MSShapeGroup"></path>
            </g>
        </g>
    </g>
</svg>