<svg width="814" height="230" viewBox="0 0 814 230" fill="none" xmlns="http://www.w3.org/2000/svg">
<path d="M616.1 225.6C618.1 226.6 666.7 225.1 666.7 225.1" stroke="#0791b3" stroke-width="8" stroke-miterlimit="10" stroke-linecap="round" stroke-linejoin="round"/>
<path d="M207 225.6C210.6 223.6 292.2 225.6 292.2 225.6" stroke="#0791b3" stroke-width="8" stroke-miterlimit="10" stroke-linecap="round" stroke-linejoin="round"/>
<path d="M530.9 117.4C530.3 113.3 513.4 120 516 129.1C518.6 138.3 534.4 122.6 534.4 122.6C534.4 122.6 529.3 132.3 539 132C548.7 131.7 567.6 114.9 563 113.8C558.4 112.7 549.2 130.8 558.4 132C567.6 133.2 617.6 81.6 607.9 79.6C598.2 77.6 573.7 131.9 585.4 132C597.1 132.1 620.1 116.9 613.5 113.8C606.9 110.7 601.2 131.9 609.9 131.8C618.6 131.7 632.9 116.9 632.9 116.9C632.9 116.9 625.8 130.2 632.9 129.7C640 129.2 650.8 113.9 650.8 113.9C650.8 113.9 645.2 129.2 653.9 129.7C662.6 130.2 672.3 117.4 672.3 117.4C672.3 117.4 667.7 131.7 678.4 129.7C689.1 127.7 694.2 115 689.6 113.9C685 112.8 705.4 113.9 705.4 113.9C705.4 113.9 695.6 123.6 703.3 125.2C711 126.7 730.5 113.9 730.5 113.9C730.5 113.9 690.2 194.2 658 211.7C625.8 229.2 621.7 193 666.7 169C710.2 145.8 711.6 148.1 730.5 142.4C749.4 136.8 829.6 124.7 805.1 147.9" stroke="#0791b3" stroke-width="8" stroke-miterlimit="10" stroke-linecap="round" stroke-linejoin="round"/>
<path d="M431.2 8.60001C430.7 11.2 400.1 126.6 400.1 126.6C400.1 126.6 412.9 90.9 427.2 70.9C441.5 50.9 464 37.2 465 43.8C466 50.4 422.6 105.6 422.6 105.6C422.6 105.6 479.8 67.3 500.7 105.6C521.6 143.9 436.5 204 380.7 210.3C317.9 217.4 262.7 195.4 324 160.7C385.3 126 482.3 135.7 503.7 145.4C525.1 155.1 538.9 168.4 525.7 179.6" stroke="#0791b3" stroke-width="8" stroke-miterlimit="10" stroke-linecap="round" stroke-linejoin="round"/>
<path d="M267.8 50.5C267.3 52.5 245.8 125.6 256.6 126.6C267.3 127.6 279.1 113.9 279.1 113.9C279.1 113.9 272.5 126.7 279.1 126.7C285.7 126.6 292.4 113.9 292.4 113.9C292.4 113.9 300.1 187.9 252.1 208.8C210.1 227.1 209 182.7 248.3 165.3C282.2 150.3 334.8 150.1 355.2 164.9C375.6 179.7 357.8 189.9 357.8 189.9" stroke="#0791b3" stroke-width="8" stroke-miterlimit="10" stroke-linecap="round" stroke-linejoin="round"/>
<path d="M239.7 120.4C239.7 120.4 264.2 5.99999 254 4.49999C243.8 2.99999 226.6 152.3 189.1 195.5C142.1 249.6 -6.00005 217.5 5.29995 158.7C16.5999 99.9 198.8 64.2 276.4 92.8C354 121.4 307 142.8 307 142.8" stroke="#0791b3" stroke-width="8" stroke-miterlimit="10" stroke-linecap="round" stroke-linejoin="round"/>
</svg>
