<?xml version="1.0" encoding="UTF-8" standalone="no"?>
<svg width="159px" height="198px" viewBox="0 0 159 198" version="1.1" xmlns="http://www.w3.org/2000/svg" xmlns:xlink="http://www.w3.org/1999/xlink" xmlns:sketch="http://www.bohemiancoding.com/sketch/ns">
    <!-- Generator: Sketch 3.0.4 (8053) - http://www.bohemiancoding.com/sketch -->
    <title>Rectangle 1 + shoppy + shopping173 + Oval 3 + SHOPPY</title>
    <desc>Created with Sketch.</desc>
    <defs></defs>
    <g id="Page-1" stroke="none" stroke-width="1" fill="none" fill-rule="evenodd" sketch:type="MSPage">
        <g id="Artboard-1" sketch:type="MSArtboardGroup" transform="translate(-155.000000, -35.000000)">
            <g id="Rectangle-1-+-shoppy-+-shopping173-+-Oval-3-+-SHOPPY" sketch:type="MSLayerGroup" transform="translate(153.000000, 35.000000)">
                <g id="Rectangle-1-+-shoppy-+-shopping173" transform="translate(47.000000, 39.000000)" sketch:type="MSShapeGroup">
                    <g id="shopping173">
                        <g id="Group">
                            <path d="M61.4951335,22.2960384 L44.026078,22.2960384 L43.0173203,34.5629715 L58.2907269,34.5629715 L61.4951335,22.2960384 Z" id="Shape" fill="#2F9D92"></path>
                            <path d="M6.45771253,36.9287467 L8.38341684,44.2994826 L21.9142423,44.2994826 L21.3079897,36.9287467 L6.45771253,36.9287467 Z" id="Shape" fill="#A4A4A4"></path>
                            <path d="M19.9097002,19.9302632 L19.2515544,11.9234603 L-0.0743470226,11.9234603 L2.01734908,19.9302632 L19.9097002,19.9302632 Z" id="Shape" fill="#A4A4A4"></path>
                            <path d="M41.6597803,22.2960384 L22.4709302,22.2960384 L23.4798542,34.5629715 L40.6510226,34.5629715 L41.6597803,22.2960384 Z" id="Shape" fill="#FFFFFF"></path>
                            <path d="M2.63524435,22.2960384 L5.83981725,34.5629715 L21.1130575,34.5629715 L20.1046324,22.2960384 L2.63524435,22.2960384 Z" id="Shape" fill="#2F9D92"></path>
                            <path d="M22.2764969,19.9302632 L41.8542136,19.9302632 L42.5128583,11.9234603 L21.6180185,11.9234603 L22.2764969,19.9302632 Z" id="Shape" fill="#2F9D92"></path>
                            <path d="M42.2168008,44.2994826 L55.7471273,44.2994826 L57.6728316,36.9287467 L42.8232197,36.9287467 L42.2168008,44.2994826 Z" id="Shape" fill="#A4A4A4"></path>
                            <path d="M39.8505031,44.2994826 L40.4562567,36.9287467 L23.6742875,36.9287467 L24.2803737,44.2994826 L39.8505031,44.2994826 Z" id="Shape" fill="#2F9D92"></path>
                            <ellipse id="Oval" fill="#2F9D92" cx="15.5501704" cy="59.7432569" rx="6.23600205" ry="6.25440767"></ellipse>
                            <ellipse id="Oval" fill="#2F9D92" cx="48.6487331" cy="59.7432569" rx="6.23600205" ry="6.25440767"></ellipse>
                            <path d="M67.8517207,0.5316405 C67.5510062,0.694952721 67.2572772,0.910144514 66.9768542,1.19172881 C63.7812628,4.40058876 60.5861704,7.60928189 57.3905791,10.8181418 C57.0404661,11.1696218 56.7923101,11.5429545 56.6231581,11.9239607 L44.8788234,11.9239607 L44.220345,19.9309304 L62.1126961,19.9309304 L63.4624189,14.7636583 C66.0131704,12.2020419 68.563922,9.64092596 71.1146735,7.07930955 L77.485731,7.07930955 C82.0490082,7.07930955 82.0490082,-0.0176824264 77.485731,-0.0176824264 L69.7805852,-0.0176824264 C69.0045154,-0.0181828724 68.3633347,0.190503122 67.8517207,0.5316405 L67.8517207,0.5316405 Z" id="Shape-3" fill="#A4A4A4"></path>
                        </g>
                    </g>
                </g>
                <circle id="Oval-3" stroke="#2E9D93" stroke-width="8" sketch:type="MSShapeGroup" cx="80" cy="73" r="69"></circle>
                <text id="SHOPPY" sketch:type="MSTextLayer" font-family="Open Sans" font-size="42" font-weight="normal" fill="#2F9D92">
                    <tspan x="0" y="197">SHOPPY</tspan>
                </text>
            </g>
        </g>
    </g>
</svg>